<?xml version="1.0" encoding="UTF-8" standalone="no"?>
<!-- Created with Inkscape (http://www.inkscape.org/) -->

<svg
   version="1.1"
   id="svg1"
   width="57.826771"
   height="76.724403"
   viewBox="0 0 57.826771 76.724403"
   sodipodi:docname="artifacts_cav_3-reusable.svg"
   inkscape:version="1.4.2 (ebf0e940d0, 2025-05-08)"
   xmlns:inkscape="http://www.inkscape.org/namespaces/inkscape"
   xmlns:sodipodi="http://sodipodi.sourceforge.net/DTD/sodipodi-0.dtd"
   xmlns="http://www.w3.org/2000/svg"
   xmlns:svg="http://www.w3.org/2000/svg">
  <defs
     id="defs1" />
  <sodipodi:namedview
     id="namedview1"
     pagecolor="#ffffff"
     bordercolor="#000000"
     borderopacity="0.25"
     inkscape:showpageshadow="2"
     inkscape:pageopacity="0.0"
     inkscape:pagecheckerboard="0"
     inkscape:deskcolor="#d1d1d1"
     inkscape:zoom="15.119049"
     inkscape:cx="28.903935"
     inkscape:cy="38.362202"
     inkscape:window-width="2560"
     inkscape:window-height="1371"
     inkscape:window-x="0"
     inkscape:window-y="0"
     inkscape:window-maximized="1"
     inkscape:current-layer="g1">
    <inkscape:page
       x="0"
       y="0"
       inkscape:label="1"
       id="page1"
       width="57.826771"
       height="76.724403"
       margin="0"
       bleed="0" />
  </sodipodi:namedview>
  <g
     id="g1"
     inkscape:groupmode="layer"
     inkscape:label="1">
    <path
       id="path1"
       d="m 4.676,0.426 h 34.015 c 2.356,0 4.254,1.894 4.254,4.25 v 48.191 c 0,2.356 -1.898,4.25 -4.254,4.25 H 4.676 c -2.356,0 -4.25,-1.894 -4.25,-4.25 V 4.676 c 0,-2.356 1.894,-4.25 4.25,-4.25 z"
       style="fill:#ffffff;fill-opacity:1;fill-rule:evenodd;stroke:#ad5f00;stroke-width:0.850394;stroke-linecap:butt;stroke-linejoin:miter;stroke-miterlimit:4;stroke-dasharray:none;stroke-opacity:1"
       transform="scale(1.3333333)" />
    <path
       id="path2"
       d="m 4.676,0.426 c -2.356,0 -4.25,1.894 -4.25,4.25 v 35.875 c 6.824,2.441 14.012,3.703 21.258,3.73 C 28.934,44.258 36.121,43 42.945,40.559 V 4.676 c 0,-2.356 -1.898,-4.25 -4.254,-4.25 z"
       style="fill:#ad5f00;fill-opacity:1;fill-rule:evenodd;stroke:none"
       transform="scale(1.3333333)" />
    <text
       id="text2"
       xml:space="preserve"
       transform="matrix(1.3333333,0,0,1.3333333,5.107836,70.218751)"><tspan
         id="tspan2"
         style="font-variant:normal;font-weight:700;font-size:7.30001px;font-family:'TeX Gyre Adventor';writing-mode:lr-tb;fill:#ad5f00;fill-opacity:1;fill-rule:nonzero;stroke:none"
         x="0"
         dx="0 0.41610035 0.40880033 0.41610035 0.40880033 0.41610035 0.40880033 0.41610035"
         y="0">Reusable</tspan></text>
    <text
       id="text3"
       xml:space="preserve"
       transform="matrix(1.3333333,0,0,1.3333333,14.007836,17.017475)"><tspan
         id="tspan3"
         style="font-variant:normal;font-weight:700;font-size:10.7308px;font-family:'TeX Gyre Adventor';writing-mode:lr-tb;fill:#ffffff;fill-opacity:1;fill-rule:nonzero;stroke:none"
         x="0"
         dx="0 -0.16096209 -0.80481046"
         y="0">CAV</tspan></text>
    <text
       id="text4"
       xml:space="preserve"
       transform="matrix(1.3333333,0,0,1.3333333,5.290228,40.560977)"><tspan
         id="tspan4"
         style="font-variant:normal;font-weight:700;font-size:6.99999px;font-family:'TeX Gyre Adventor';writing-mode:lr-tb;fill:#ffffff;fill-opacity:1;fill-rule:nonzero;stroke:none"
         x="0"
         dx="0 0 -0.17499967"
         y="0">Evaluation</tspan><tspan
         id="tspan5"
         style="font-variant:normal;font-weight:700;font-size:6.99999px;font-family:'TeX Gyre Adventor';writing-mode:lr-tb;fill:#ffffff;fill-opacity:1;fill-rule:nonzero;stroke:none"
         x="5.5080447"
         dx="0 0 0.1049998"
         y="-7.5387759">Artifact</tspan></text>
    <path
       id="path5"
       d="m 12.84,38.609 1.805,0.887 -0.286,-1.992 1.403,-1.442 -1.981,-0.343 -0.941,-1.781 -0.938,1.781 -1.984,0.343 1.402,1.442 -0.285,1.992 z"
       style="fill:#ffffff;fill-opacity:1;fill-rule:evenodd;stroke:none"
       transform="scale(1.3333333)" />
    <path
       id="path6"
       d="m 21.684,38.609 1.808,0.887 -0.289,-1.992 1.402,-1.442 -1.98,-0.343 -0.941,-1.781 -0.938,1.781 -1.984,0.343 1.402,1.442 -0.285,1.992 z"
       style="fill:#ffffff;fill-opacity:1;fill-rule:evenodd;stroke:none"
       transform="scale(1.3333333)" />
    <path
       id="path7"
       d="m 30.527,38.609 1.809,0.887 -0.289,-1.992 1.402,-1.442 -1.98,-0.343 -0.942,-1.781 -0.937,1.781 -1.985,0.343 1.403,1.442 -0.285,1.992 z"
       style="fill:#ffffff;fill-opacity:1;fill-rule:evenodd;stroke:none"
       transform="scale(1.3333333)" />
  </g>
</svg>
